<svg id="Layer_1" data-name="Layer 1" xmlns="http://www.w3.org/2000/svg" viewBox="0 0 318.14 310.71"><defs><style>.cls-1{fill:#fbb041;stroke:#414042;stroke-miterlimit:10;}</style></defs><title>single_leaf</title><path class="cls-1" d="M270.74,56.53c-1.33-.78-0.84-2.37-2-6.06-0.33-1.09-2.25-7.32-4.81-7.44-1.68-.07-2.6,2.55-4.32,2.21-0.49-.11-0.89-0.46-1.8-1.62A36.27,36.27,0,0,1,254.23,38c-1.7-3.36-1.74-4.1-2.78-4.59-1.51-.7-2.23.39-3.8-0.09-2.61-.84-2-4.31-5.25-7.05-0.56-.46-2.77-2.34-5.37-2-2.9.32-3.28,3.06-5.56,3-2.95,0-3.89-4.77-7-4.65-1.28,0-1.57.87-3.77,1.08a7.65,7.65,0,0,1-3.44-.31c-3-1.12-2.66-4.26-5.49-5.31a6.7,6.7,0,0,0-4.24.19c-3.1.87-3,2.86-5.07,2.87s-3.09-1.33-8.79-3.77a5.26,5.26,0,0,0-3.29-.64c-1.61.36-2,1.61-3.49,2-1.09.31-1.85-.05-4.23-0.94-4.76-1.8-7.18-2.67-8.58-2.18-1.7.61-1.7,1.87-3.58,2.12-1.11.2-1.43-.26-3.59-0.72a22.27,22.27,0,0,0-4.6-.5c-2.87,0-2.94,1-5.11,1-3.7.08-4.4-2.65-7.81-2.42-2.28.16-2.26,1.41-5,1.82s-3-.64-6.83-0.87c-3.42-.19-3.54.7-7.18,0.44-2.78-.2-3-0.73-5.29-0.66-2.47.07-2.77,0.71-5.71,1.24-4.46.79-5-.47-8.58,0.5-3.16.8-2.74,1.76-5.61,2.24s-4.19-.38-6.8.55c-1.34.48-1.48,0.86-3.24,1.94a28.27,28.27,0,0,1-9.27,3.46c-4.06.79-5.74,0.16-7.27,1.72a5.84,5.84,0,0,0-1.49,3.7c-4.49-2-7.07-1.58-8.62-.71-2.52,1.4-2.28,3.93-5.44,5.72-2.45,1.38-3.31.28-6.2,1.55-3.77,1.68-3.2,3.86-6.62,5.75-2.68,1.49-5.36,1.38-10.7,1.19-4.39-.17-4.07-0.75-8-0.74-5.78,0-5.42,1.32-9.36.91-1.2-.15-3.34-0.43-4.76.84a3.37,3.37,0,0,0-.71.95,7.36,7.36,0,0,0,1.64,1.74,10.09,10.09,0,0,0,2.38,1.22,8.67,8.67,0,0,1,3.95,3c0.64,1.08.26,1.5,0.7,3.45C26,58.83,26.92,59,27.46,61c0.82,2.9-.8,3.42-0.74,8,0,3.21.86,3.76,0.41,5.9a9.7,9.7,0,0,1-3,5C24.07,82.67,24,85,23.89,86.7c-0.63,13.31-1.4,11-1.82,15.17A6.24,6.24,0,0,1,21,105.11c-1,1.86-2.07,1.84-2.26,3.06-0.34,2.09,1.58,3.21,1.51,5.27s-1.81,2.23-3.32,4.87c-1.66,2.9-.35,4.12-1.38,10.63-0.78,4.86-1.55,4.41-1.42,6.82,0.25,4.51,3.24,5.67,2.39,9.32-0.64,2.67-2.24,3.44-2.06,5.61,0.37,3.47,4.67,4.25,4.53,6.84s-4.4,3.09-4.62,6.1c-0.18,2.25,2.13,2.84,2.3,5.69s-2,3.39-1.6,6c0.37,2.78,3,3,3.32,5.66s-2,3.49-1.37,6.11c0.42,1.74,1.55,2,1.72,4,0.13,1.41-.38,1.79-0.39,3.2,0,2,1,3.23,1.82,4.57,2.12,3.69,0,5.08,2.07,8.77,2.38,4.36,5.93,5.58,5.74,8.72-0.12,2.61-2.78,3.35-2.11,5.34,0.71,2.26,3.93,2.15,5.15,5.18,0.56,1.4,0,1.66.67,3.79s1.48,2.31,2.29,4.14c1.4,3.18-.25,4.33,1.07,6.52,1.45,2.46,3.71,1.5,5.12,3.88,1.53,2.57-.53,4.7,1.17,6.9,1.21,1.56,2.49.76,4,2.63s0.57,3.23,1.9,4.74c1.82,2,4.4.42,6.05,2.18s-0.34,3.85,1,6.75c0.3,0.68.67,1.07,7.34,5.67,2.69,1.85,3.53,2.42,4.08,3.68,0.93,2.14-.38,3.05.59,5s3.31,2.68,6.54,3.74c2.88,1,4.47.93,5.34,2.37,0.54,0.92.17,1.31,0.51,2.61A8.5,8.5,0,0,0,84,297c2.58,0.88,3.43-.6,6.4.31,2.39,0.78,2.19,1.85,4.29,2.41,3.32,0.89,5.28-1.74,7-.44,2.09,1.51.74,4.2,2.61,6.28,2.61,2.84,6.48-.88,15.38.85,3.09,0.55,5.23,1.48,7.86.39,2.08-.86,3.27-2.5,4.13-2s-0.28,3,.71,4.85c1.51,2.78,7.23,2.36,13.45,2.12,14.71-.56,12.61.76,18.53-0.11,10.89-1.6,11.77-5.25,22.18-7.77,9.45-2.29,12.31.28,17.75,0.25a29.17,29.17,0,0,0,6.21-1c5.72-1.55,16.9-7.83,30.16-17.89,8.64-5.38,15-10,19.33-13.29,2.59-2,4.88-3.83,8-3.66,2.79,0.15,4.38,1.83,11.31,8.74,3.6,3.6,7.24,7.15,10.81,10.77,5.33,5.39,5,5,8.91,8.9,8.12,8.23,17.72,15.15,24.76,24.3,0.9,1.17,3.27,4.37,5.44,3.91a2.65,2.65,0,0,0,1.9-1.79c0.76-2.7-4.15-6.26-5.33-7.18-6-4.61-24.37-22.59-52.63-51.17a6.77,6.77,0,0,1-.52-3.64,8.65,8.65,0,0,1,.58-1.82,63.88,63.88,0,0,1,2.48-6.3q1.13-2.49,2.46-4.9c2.55-4.25,3.79-6.4,6.19-9.76,6.43-9,11.76-16.5,14.26-25.87,1.64-6.27,1.74-12.31,1.92-24.37,0.11-5.76.16-8.63,0.14-9.21-0.13-6.52-.72-9.08.21-13.24,0.52-2.29.82-2.08,2.58-6.74,3.32-8.71,2-8.64,5.14-18.17a20.27,20.27,0,0,0,1.35-8.92,13.38,13.38,0,0,0-.66-3.15c-1.29-3.75-3.46-4.19-4.64-6.6-1.6-3.32,1.36-4.82,1.45-12.33,0-2.82.07-7.31-2.55-9-1.71-1.08-3.41-.19-4.24-1.47s0.83-2.65,1.28-5.72c0.51-3.5-.79-7.76-3.41-9.09-1.55-.74-2.12.19-3.48-0.47-3.78-1.81-1-10-5.09-12.66-2.31-1.56-4.4.3-6-1.43-1.92-2,.48-4.91-1.35-9.24-0.34-.79-1.53-3.79-4.26-4.51S272.52,57.57,270.74,56.53Z" transform="translate(-13.55 -14.65)"/></svg>